<?xml version="1.0" encoding="utf-8"?>
<!-- Generator: Adobe Illustrator 16.0.0, SVG Export Plug-In . SVG Version: 6.00 Build 0)  -->
<!DOCTYPE svg PUBLIC "-//W3C//DTD SVG 1.1//EN" "http://www.w3.org/Graphics/SVG/1.1/DTD/svg11.dtd">
<svg version="1.1" id="Capa_1" xmlns="http://www.w3.org/2000/svg" xmlns:xlink="http://www.w3.org/1999/xlink" x="0px" y="0px"
	 width="612px" height="792px" viewBox="0 0 612 792" enable-background="new 0 0 612 792" xml:space="preserve">
<g>
	<path fill-rule="evenodd" clip-rule="evenodd" fill="#FFFFFF" d="M179,497c-17.667,0-35.333,0-53,0c0-66.667,0-133.333,0-200
		c120.667,0,241.334,0,362,0c0,1.333,0,2.667,0,4c-8.884,0.049-16.558,2.518-22.209,10.011
		c-7.918,10.501-16.351,20.619-24.09,31.245c-2.966,4.072-5.756,6.965-11.16,6.316c-1.932-0.231-4.01,0.188-5.93,0.669
		c-0.933,0.233-2.201,1.213-2.322,2.007c-0.122,0.794,0.799,2.05,1.603,2.637c5.83,4.258,6.093,5.531,1.925,11.454
		c-17.284,24.566-30.604,51.152-39.009,79.959c-2.607,8.936-3.6,18.655-3.479,27.991c0.141,10.877,7.975,20.243,16.443,21.352
		c5.389,0.705,11.006,0.597,16.411-0.057c3.774-0.455,7.363-2.45,11.035-3.758c-0.241-0.619-0.482-1.237-0.724-1.855
		c-1.527,0.433-3.049,0.887-4.583,1.295c-4.167,1.106-8.28,2.605-12.521,3.203c-8.863,1.247-15.43-2.431-17.449-11.143
		c-1.656-7.148-2.693-15.015-1.513-22.15c6.517-39.353,26.61-72.8,47.638-105.714c0.88-1.377,3.615-2.157,5.506-2.194
		c6.647-0.129,13.304,0.306,19.956,0.275c2.497-0.012,4.991-0.711,7.487-1.098c0.001-0.758,0.002-1.517,0.003-2.274
		c-8.563-2.015-17.604,0.038-26.742-1.251c0.549-1.221,0.73-2.049,1.211-2.628c9.453-11.395,18.62-23.052,28.589-33.977
		c3.655-4.005,9.227-6.262,13.924-9.315c0,64.935,0,129.868,0,195c-99.333,0-198.667,0-298,0c0.952-0.273,1.888-0.66,2.859-0.804
		c35.586-5.24,64.235-22.682,87.397-49.73c1.256-1.467,2.054-3.326,3.066-5.003c-1.539-0.063-2.184,0.42-2.695,1.017
		c-15.737,18.394-35.443,31.16-57.674,40.143c-16.854,6.811-34.268,10.809-52.673,8.587c-18.006-2.174-31.377-13.321-34.85-29.602
		c-2.183-10.23-0.56-20.204,2.858-29.963c8.821-25.189,24.978-45.379,43.788-63.644c15.979-15.517,33.263-29.272,54.326-37.513
		c7.405-2.897,14.965-4.521,22.949-3.695c7.98,0.826,13.503,4.932,14.481,12.782c0.909,7.295,1.678,15.219-0.208,22.125
		c-3.975,14.563-9.983,28.445-25.708,34.595c2.609,2.555,4.647,2.689,8.004-0.414c15.923-14.723,26.688-31.795,25.128-54.669
		c-0.6-8.807-4.646-15.039-13.195-17.119c-13.706-3.335-26.845-0.789-39.202,5.506c-35.938,18.308-65.509,43.834-86.888,78.264
		c-4.005,6.45-7.083,13.596-9.741,20.736c-3.898,10.47-5.33,21.473-2.227,32.388c5.45,19.166,19.781,28.826,37.98,33.855
		C171.437,495.854,175.255,496.296,179,497z M327.594,443.736c-0.074-0.53-0.148-1.062-0.222-1.592
		c-4.216,0.247-4.735-0.181-3.675-4.188c1.699-6.411,3.533-12.796,5.587-19.102c0.974-2.99,0.097-4.115-2.776-4.948
		c-12.575-3.647-28.956,9.761-27.618,23.173c0.281,2.816,2.458,6.781,4.754,7.681c2.26,0.886,6.258-0.803,8.625-2.542
		c2.74-2.012,4.533-5.313,6.006-7.144c0.541,2.988,0.861,6.563,2.115,9.774C320.582,445.341,325.084,444.149,327.594,443.736z
		 M351.842,438.08c-0.018-0.651-0.037-1.303-0.055-1.955c-1.777,1.431-3.555,2.861-5.332,4.292c1.725,1.703,3.18,4.333,5.226,4.925
		c4.999,1.446,9.912,0.214,14.089-3.043c5.764-4.493,5.837-9.271,0.293-14.042c-2.14-1.841-4.573-3.388-6.492-5.427
		c-2.738-2.91-1.858-5.97,1.815-7.419c4.364-1.722,6.628,0.273,7.588,6.535c1.281-1.797,2.562-3.594,3.843-5.391
		c-1.957-1.158-3.865-3.152-5.885-3.273c-2.84-0.17-6.001,0.546-8.604,1.773c-6.816,3.215-7.272,8.686-1.487,13.576
		c2.407,2.034,5.342,3.761,6.941,6.313c0.975,1.555,0.637,5.798-0.467,6.416c-2.6,1.457-6.021,1.874-9.086,1.792
		C353.389,443.131,352.635,439.86,351.842,438.08z M427.207,446.173c0.104-0.594,0.208-1.187,0.313-1.779
		c-4.131-0.653-4.029-3.236-3.061-6.289c2.483-7.827,4.928-15.667,7.387-23.503c-0.324-0.373-0.648-0.746-0.974-1.119
		c-1.737,1.051-4.491,1.726-5.043,3.215c-2.759,7.441-5.168,15.037-7.151,22.72c-0.459,1.778,0.654,4.859,2.1,5.982
		C422.238,446.534,425.01,445.984,427.207,446.173z M431.029,398.161c-1.547,2.263-3.904,4.287-0.532,6.28
		c1.188,0.702,4.213,0.634,4.632-0.097C437.263,400.628,433.876,399.723,431.029,398.161z"/>
	<path fill-rule="evenodd" clip-rule="evenodd" d="M179,497c-3.745-0.704-7.563-1.146-11.224-2.158
		c-18.199-5.029-32.53-14.689-37.98-33.855c-3.103-10.915-1.671-21.918,2.227-32.388c2.658-7.141,5.735-14.286,9.741-20.736
		c21.379-34.43,50.95-59.956,86.888-78.264c12.356-6.295,25.496-8.841,39.202-5.506c8.55,2.08,12.595,8.313,13.195,17.119
		c1.56,22.874-9.206,39.946-25.128,54.669c-3.356,3.104-5.395,2.969-8.004,0.414c15.725-6.149,21.733-20.032,25.708-34.595
		c1.885-6.906,1.117-14.83,0.208-22.125c-0.978-7.851-6.501-11.956-14.481-12.782c-7.984-0.826-15.543,0.798-22.949,3.695
		c-21.063,8.24-38.347,21.996-54.326,37.513c-18.81,18.265-34.967,38.454-43.788,63.644c-3.417,9.759-5.041,19.732-2.858,29.963
		c3.473,16.28,16.844,27.428,34.85,29.602c18.405,2.222,35.819-1.776,52.673-8.587c22.23-8.982,41.937-21.749,57.674-40.143
		c0.511-0.597,1.156-1.08,2.695-1.017c-1.012,1.677-1.81,3.536-3.066,5.003c-23.162,27.049-51.812,44.49-87.397,49.73
		c-0.971,0.144-1.907,0.53-2.859,0.804C186.333,497,182.667,497,179,497z"/>
	<path fill-rule="evenodd" clip-rule="evenodd" d="M488,302c-4.697,3.054-10.269,5.311-13.924,9.315
		c-9.969,10.925-19.136,22.582-28.589,33.977c-0.48,0.579-0.662,1.407-1.211,2.628c9.139,1.289,18.179-0.764,26.742,1.251
		c-0.001,0.758-0.002,1.517-0.003,2.274c-2.496,0.387-4.99,1.086-7.487,1.098c-6.652,0.03-13.309-0.404-19.956-0.275
		c-1.891,0.037-4.626,0.817-5.506,2.194c-21.027,32.914-41.121,66.361-47.638,105.714c-1.181,7.136-0.144,15.002,1.513,22.15
		c2.02,8.712,8.586,12.39,17.449,11.143c4.24-0.598,8.354-2.097,12.521-3.203c1.534-0.408,3.056-0.862,4.583-1.295
		c0.241,0.618,0.482,1.236,0.724,1.855c-3.672,1.308-7.261,3.303-11.035,3.758c-5.405,0.653-11.022,0.762-16.411,0.057
		c-8.469-1.108-16.303-10.475-16.443-21.352c-0.12-9.336,0.872-19.056,3.479-27.991c8.405-28.807,21.725-55.393,39.009-79.959
		c4.168-5.923,3.905-7.196-1.925-11.454c-0.804-0.587-1.725-1.843-1.603-2.637c0.121-0.794,1.39-1.773,2.322-2.007
		c1.92-0.481,3.998-0.9,5.93-0.669c5.404,0.648,8.194-2.244,11.16-6.316c7.739-10.626,16.172-20.744,24.09-31.245
		c5.651-7.493,13.325-9.962,22.209-10.011C488,301.333,488,301.667,488,302z"/>
	<path fill-rule="evenodd" clip-rule="evenodd" d="M327.594,443.736c-2.51,0.413-7.012,1.604-7.203,1.113
		c-1.254-3.211-1.574-6.786-2.115-9.774c-1.473,1.831-3.266,5.132-6.006,7.144c-2.367,1.739-6.366,3.428-8.625,2.542
		c-2.297-0.899-4.474-4.864-4.754-7.681c-1.337-13.412,15.043-26.82,27.618-23.173c2.873,0.833,3.75,1.958,2.776,4.948
		c-2.054,6.306-3.888,12.69-5.587,19.102c-1.061,4.007-0.541,4.435,3.675,4.188C327.445,442.675,327.52,443.206,327.594,443.736z
		 M325.98,417.327c-4.601-3.463-8.147-2.522-10.119,0.188c-4.122,5.666-7.771,11.749-10.898,18.018
		c-0.842,1.688,0.887,4.66,1.435,7.043c2.094-1.047,5.006-1.547,6.136-3.237C317.276,432.245,321.485,424.796,325.98,417.327z"/>
	<path fill-rule="evenodd" clip-rule="evenodd" d="M351.842,438.08c0.793,1.78,1.547,5.051,2.387,5.073
		c3.064,0.082,6.486-0.335,9.086-1.792c1.104-0.618,1.441-4.861,0.467-6.416c-1.6-2.553-4.534-4.279-6.941-6.313
		c-5.785-4.891-5.329-10.361,1.487-13.576c2.604-1.228,5.765-1.943,8.604-1.773c2.02,0.121,3.928,2.115,5.885,3.273
		c-1.281,1.797-2.562,3.594-3.843,5.391c-0.96-6.262-3.224-8.257-7.588-6.535c-3.674,1.449-4.554,4.509-1.815,7.419
		c1.919,2.039,4.353,3.586,6.492,5.427c5.544,4.771,5.471,9.549-0.293,14.042c-4.177,3.257-9.09,4.489-14.089,3.043
		c-2.046-0.592-3.501-3.222-5.226-4.925c1.777-1.431,3.555-2.861,5.332-4.292C351.805,436.777,351.824,437.429,351.842,438.08z"/>
	<path fill-rule="evenodd" clip-rule="evenodd" d="M427.207,446.173c-2.197-0.188-4.969,0.361-6.43-0.773
		c-1.445-1.123-2.559-4.204-2.1-5.982c1.983-7.683,4.393-15.278,7.151-22.72c0.552-1.489,3.306-2.164,5.043-3.215
		c0.325,0.373,0.649,0.746,0.974,1.119c-2.459,7.836-4.903,15.676-7.387,23.503c-0.969,3.053-1.07,5.636,3.061,6.289
		C427.415,444.986,427.311,445.579,427.207,446.173z"/>
	<path fill-rule="evenodd" clip-rule="evenodd" d="M431.029,398.161c2.847,1.562,6.233,2.467,4.1,6.184
		c-0.419,0.73-3.444,0.799-4.632,0.097C427.125,402.448,429.482,400.424,431.029,398.161z"/>
	<path fill-rule="evenodd" clip-rule="evenodd" fill="#FFFFFF" d="M325.98,417.327c-4.495,7.469-8.704,14.918-13.446,22.011
		c-1.13,1.69-4.042,2.19-6.136,3.237c-0.548-2.383-2.277-5.354-1.435-7.043c3.126-6.269,6.776-12.352,10.898-18.018
		C317.833,414.805,321.38,413.864,325.98,417.327z"/>
</g>
</svg>
