<svg xmlns="http://www.w3.org/2000/svg" viewBox="0 0 49.89 9.85">
    <title>cloud1</title>
    <g id="Livello_2" data-name="Livello 2">
        <g id="Livello_2-2" data-name="Livello 2">
            <path d="M41.39,2.62a12.83,12.83,0,0,0-5.21-1c-3,0-5.53.74-6.41,1.85a20.14,20.14,0,0,0-4.53-.26C25.12,1.14,20.9,0,16.92,0c-3,0-5.72.61-7.17,1.59a10.58,10.58,0,0,0-4.84.2C2.86,1.48,0,1.94,0,3.35,0,4.48,1.9,5,3.66,5a8.66,8.66,0,0,0,1.25-.09,10.45,10.45,0,0,0,4.84.19,5.3,5.3,0,0,0,.79.45,1.15,1.15,0,0,0-.8,1c0,1.06,1.87,1.48,3.4,1.37a9.09,9.09,0,0,0,4.3.89,12.51,12.51,0,0,0,2.32-.22,15.09,15.09,0,0,0,6.58,1.27c3.57,0,7.38-.94,8.1-2.71a14.34,14.34,0,0,0,7-.86c3,.9,8.5.29,8.5-1.83S44.4,1.71,41.39,2.62ZM44.57,5.7a10.16,10.16,0,0,1-3.07-.43l-.2-.07-.19.1a13.41,13.41,0,0,1-7,.8L33.58,6l0,.54c0,.95-2.81,2.28-7.21,2.28a13.69,13.69,0,0,1-6.25-1.23l-.16-.1-.19,0c-2.21.47-5,.17-6.21-.58l-.15-.09h-.17a4.63,4.63,0,0,1-.54,0,3.68,3.68,0,0,1-1.87-.39,3.24,3.24,0,0,1,1.61-.37L15.74,6l-3.23-.84a6.66,6.66,0,0,1-2.35-1L10,4l-.23,0a9.35,9.35,0,0,1-4.63-.16L5,3.88l-.12,0A6.89,6.89,0,0,1,3.66,4,4.08,4.08,0,0,1,1,3.37c.07-.19,1-.67,2.66-.67a7.92,7.92,0,0,1,1.21.09l.12,0,.12,0a9.47,9.47,0,0,1,4.63-.15l.23,0,.19-.14C11.37,1.6,14,1,16.92,1c4.53,0,7.32,1.37,7.32,2.35a.56.56,0,0,1-.07.25l-.34.77.84-.07a19.36,19.36,0,0,1,5.24.26l.39.07.16-.35c.36-.78,2.65-1.61,5.72-1.61a11.29,11.29,0,0,1,4.93.93l.19.1.2-.07a10.14,10.14,0,0,1,3.07-.44c2.68,0,4.32.82,4.32,1.26S47.25,5.7,44.57,5.7Z"/>
        </g>
    </g>
</svg>