<svg xmlns="http://www.w3.org/2000/svg" viewBox="0 0 42.27 8.13">
    <title>cloud2</title>
    <g id="Livello_2" data-name="Livello 2">
        <g id="Livello_2-2" data-name="Livello 2">
            <path d="M37.24,2.43A9.19,9.19,0,0,0,33.78,3c-2.45-.69-6.53-.12-6.53,1.7s4.08,2.39,6.53,1.7a9.2,9.2,0,0,0,3.46.6c2.5,0,5-.79,5-2.3S39.74,2.43,37.24,2.43Zm0,3.61A7.9,7.9,0,0,1,34,5.45l-.18-.08-.18.06a7.64,7.64,0,0,1-2.17.3c-2.14,0-3.25-.7-3.25-1s1.11-1,3.25-1a7.29,7.29,0,0,1,2.17.31l.18.06L34,4a8.07,8.07,0,0,1,3.21-.59c2.42,0,4,.79,4,1.31S39.66,6,37.24,6Z"/>
            <path d="M17,1.38A13.12,13.12,0,0,0,10.67,0C7.45,0,4.61.81,3.43,2.05,1.9,1.89,0,2.3,0,3.43S1.9,5,3.43,4.8C4.51,5.93,7,6.71,9.85,6.84A13.34,13.34,0,0,0,16,8.13c4.42,0,7.76-1.46,7.76-3.39S21,1.59,17,1.38ZM16,7.13a12.1,12.1,0,0,1-5.77-1.22l-.11-.06H10C7.25,5.74,4.79,5,4,4l-.19-.24-.29,0a4.9,4.9,0,0,1-.77.06A3.73,3.73,0,0,1,1,3.47,2.71,2.71,0,0,1,2.79,3a4.9,4.9,0,0,1,.77.06l.29,0L4,2.88C4.74,2,7.25,1,10.67,1a12.19,12.19,0,0,1,6,1.29l.11.07h.13c3.54.17,5.92,1.36,5.92,2.37S19.89,7.13,16,7.13Z"/>
        </g>
    </g>
</svg>