<svg xmlns="http://www.w3.org/2000/svg" viewBox="0 0 34.84 6.7">
    <title>cloud3</title>
    <g id="Livello_2" data-name="Livello 2">
        <g id="Livello_2-2" data-name="Livello 2">
            <path d="M30.63,1.4h-.24A13,13,0,0,0,24,0,16.4,16.4,0,0,0,19.5.58c-.49,0-1,.07-1.45.14A15.89,15.89,0,0,0,13.27,0,13.25,13.25,0,0,0,7.14,1.31C4.16.69,0,1.42,0,3.35S4.16,6,7.14,5.39a13.25,13.25,0,0,0,6.13,1.27A15.57,15.57,0,0,0,18.05,6a13.69,13.69,0,0,0,1.45.14A16,16,0,0,0,24,6.7a12.9,12.9,0,0,0,6.41-1.41h.25c2.09,0,4.21-.67,4.21-1.95S32.72,1.4,30.63,1.4Zm0,2.9h-.52L30,4.37A11.74,11.74,0,0,1,24,5.7a15.38,15.38,0,0,1-4.24-.56l-.12,0A15,15,0,0,1,18.08,5L18,5l-.12,0a14.62,14.62,0,0,1-4.57.67A11.9,11.9,0,0,1,7.48,4.43l-.17-.1-.2,0A9.21,9.21,0,0,1,5,4.6c-2.57,0-4-.83-4-1.25S2.41,2.09,5,2.09a9.79,9.79,0,0,1,2.13.23l.2.05.17-.11A12,12,0,0,1,13.27,1a14.62,14.62,0,0,1,4.57.67l.12,0,.12,0a12.79,12.79,0,0,1,1.53-.15l.12,0A15,15,0,0,1,24,1a11.74,11.74,0,0,1,6,1.33l.14.09.29,0h.23c2.08,0,3.21.67,3.21,1S32.71,4.3,30.63,4.3Z"/>
        </g>
    </g>
</svg>