<svg xmlns="http://www.w3.org/2000/svg" viewBox="0 0 34.05 21.09">
    <title>plane</title>
    <g id="Livello_2" data-name="Livello 2">
        <g id="Livello_2-2" data-name="Livello 2">
            <path d="M34,6.45c-.61-2.9-6.34-2.52-13.82-1.12L9,.23a4.59,4.59,0,0,0-2.89,0A2.76,2.76,0,0,0,5.2.59.88.88,0,0,0,5.15,2c1,.94,4.61,4.17,6,5.48C9.36,8,7.5,8.61,5.84,9.29l-3-2.38a2.38,2.38,0,0,0-2.16-.4A.81.81,0,0,0,.09,7.67c.09.2.16.4.24.6l1.23,3.29C.74,12.22.3,12.87.43,13.49c.51,2.44,11.47,1.63,17.44.4l4,6.64s.59,1,2,.34A2.9,2.9,0,0,0,25,20a3.1,3.1,0,0,0,.62-1.83L25.78,12C31.05,10.58,34.51,8.89,34,6.45ZM14.33,11.08A1.21,1.21,0,1,1,14,8.68a1.21,1.21,0,0,1,.31,2.4Zm4.45-.9a1.21,1.21,0,1,1,1-1.35A1.2,1.2,0,0,1,18.78,10.18Zm4.46-.89a1.21,1.21,0,1,1-.32-2.39,1.21,1.21,0,1,1,.32,2.39Z"/>
        </g>
    </g>
</svg>